<?xml version="1.0" encoding="utf-8"?>
<!-- Generator: Adobe Illustrator 28.3.0, SVG Export Plug-In . SVG Version: 6.00 Build 0)  -->
<svg version="1.1" xmlns="http://www.w3.org/2000/svg" xmlns:xlink="http://www.w3.org/1999/xlink" x="0px" y="0px"
	 viewBox="0 0 31.9 32" style="enable-background:new 0 0 31.9 32;" xml:space="preserve">
<style type="text/css">
	.st0{fill:url(#SVGID_1_);}
	.st1{fill:url(#SVGID_00000154416053314412051080000015358902630341077386_);stroke:#FFFFFF;stroke-width:3;stroke-miterlimit:10;}
	.st2{fill:url(#SVGID_00000009570368385583265240000014106967207759753121_);stroke:#FFFFFF;stroke-width:3;stroke-miterlimit:10;}
</style>
<g id="Layer_1">
	<linearGradient id="SVGID_1_" gradientUnits="userSpaceOnUse" x1="2.8659" y1="17.9709" x2="29.6894" y2="17.9709">
		<stop  offset="0" style="stop-color:#EE3448"/>
		<stop  offset="1" style="stop-color:#9A1619"/>
	</linearGradient>
	<path class="st0" d="M2.9,9.4c0,0,6.4,1.5,11,0.7s6.1-1.7,9-1.6s6.9,0.7,6.9,0.7s-0.9,4.7-0.9,7.9s0.6,9.2,0.6,9.2
		s-3.3-1.9-8.6-1.6s-5.6,2.9-10.4,2.8s-7.1-2-7.1-2s1-4.9,0.8-8.4C3.8,13.5,2.9,9.4,2.9,9.4z"/>
</g>
<g id="Layer_2">
	
		<linearGradient id="SVGID_00000000197103642887163260000003925306064472945054_" gradientUnits="userSpaceOnUse" x1="3.2423" y1="18.0545" x2="29.1246" y2="18.0545">
		<stop  offset="0" style="stop-color:#EE3448"/>
		<stop  offset="1" style="stop-color:#9A1619"/>
	</linearGradient>
	
		<path style="fill:url(#SVGID_00000000197103642887163260000003925306064472945054_);stroke:#FFFFFF;stroke-width:3;stroke-miterlimit:10;" d="
		M3.2,17.5c0,0,5.3,1.6,8.6,1.3c3.3-0.2,6.4-1.6,9.3-1.6s8,0.5,8,0.5"/>
	
		<linearGradient id="SVGID_00000021120216165683000730000015081506978870298517_" gradientUnits="userSpaceOnUse" x1="17.6423" y1="17.9953" x2="18.4126" y2="17.9953">
		<stop  offset="0" style="stop-color:#EE3448"/>
		<stop  offset="1" style="stop-color:#9A1619"/>
	</linearGradient>
	
		<path style="fill:url(#SVGID_00000021120216165683000730000015081506978870298517_);stroke:#FFFFFF;stroke-width:3;stroke-miterlimit:10;" d="
		M18.2,8.2c0,0,0.4,7.1,0.2,9.3c-0.1,2.2-0.7,10.2-0.7,10.2"/>
</g>
</svg>
